<svg width="80" height="80" viewBox="0 0 80 80" fill="none" xmlns="http://www.w3.org/2000/svg">
<path d="M30.569 20.5015H33.019C41.3065 20.5015 49.3235 23.4437 55.6423 28.8062L60.9657 33.3234C68.8719 34.3609 75.0329 37.0234 78.3063 42.367C78.6485 42.9265 78.8277 43.5704 78.8277 44.2251L78.8282 49.5263C78.8282 51.0748 77.8266 52.4451 76.3516 52.917L71.6657 54.4171" stroke="url(#paint0_linear_9_5180)" stroke-width="2.34375" stroke-miterlimit="10" stroke-linecap="round" stroke-linejoin="round"/>
<path d="M58.6048 55.1185H51.5016" stroke="url(#paint1_linear_9_5180)" stroke-width="2.34375" stroke-miterlimit="10" stroke-linecap="round" stroke-linejoin="round"/>
<path d="M46.0329 55.1185H20.2736" stroke="url(#paint2_linear_9_5180)" stroke-width="2.34375" stroke-miterlimit="10" stroke-linecap="round" stroke-linejoin="round"/>
<path d="M7.44243 55.1185H4.36899C3.43305 55.1185 2.63618 54.442 2.48462 53.5185L1.28618 46.2498C0.914304 43.9935 1.45805 41.681 2.79712 39.8279L12.6393 26.1904C12.8815 25.8531 12.9581 25.4234 12.8424 25.0234L12.4471 23.639C12.2237 22.8546 12.7377 22.0515 13.5456 21.9265L21.1815 20.7468C22.2409 20.5828 23.3112 20.5015 24.3831 20.5015H25.1002" stroke="url(#paint3_linear_9_5180)" stroke-width="2.34375" stroke-miterlimit="10" stroke-linecap="round" stroke-linejoin="round"/>
<path d="M65.0195 45.7268C61.2165 45.7268 58.1337 48.8096 58.1337 52.6126C58.1337 56.4157 61.2165 59.4985 65.0195 59.4985C68.8224 59.4985 71.9054 56.4157 71.9054 52.6126C71.9054 48.8096 68.8224 45.7268 65.0195 45.7268Z" stroke="url(#paint4_linear_9_5180)" stroke-width="2.34375" stroke-miterlimit="10" stroke-linecap="round" stroke-linejoin="round"/>
<path d="M65.0196 50.1068C63.6357 50.1068 62.5138 51.2287 62.5138 52.6126C62.5138 53.9967 63.6357 55.1185 65.0196 55.1185C66.4035 55.1185 67.5255 53.9967 67.5255 52.6126C67.5255 51.2287 66.4035 50.1068 65.0196 50.1068Z" stroke="url(#paint5_linear_9_5180)" stroke-width="2.34375" stroke-miterlimit="10" stroke-linecap="round" stroke-linejoin="round"/>
<path d="M13.8583 45.7268C10.0554 45.7268 6.97241 48.8096 6.97241 52.6126C6.97241 56.4157 10.0554 59.4985 13.8583 59.4985C17.6613 59.4985 20.7441 56.4157 20.7441 52.6126C20.7441 48.8096 17.6613 45.7268 13.8583 45.7268Z" stroke="url(#paint6_linear_9_5180)" stroke-width="2.34375" stroke-miterlimit="10" stroke-linecap="round" stroke-linejoin="round"/>
<path d="M13.8583 50.1068C12.4744 50.1068 11.3524 51.2287 11.3524 52.6126C11.3524 53.9967 12.4744 55.1185 13.8583 55.1185C15.2422 55.1185 16.3641 53.9967 16.3641 52.6126C16.3641 51.2287 15.2422 50.1068 13.8583 50.1068Z" stroke="url(#paint7_linear_9_5180)" stroke-width="2.34375" stroke-miterlimit="10" stroke-linecap="round" stroke-linejoin="round"/>
<path d="M74.8683 38.4585C72.656 38.7905 70.9948 40.1911 70.9948 41.8692C70.9948 43.7942 73.181 45.3549 75.8777 45.3549C76.9862 45.3549 78.0077 45.091 78.8272 44.6467L78.8277 44.225" stroke="url(#paint8_linear_9_5180)" stroke-width="2.34375" stroke-miterlimit="10" stroke-linecap="round" stroke-linejoin="round"/>
<path d="M1.20038 44.1671H2.89053C3.98819 44.1671 5.02585 43.6481 5.66725 42.7571C6.54132 41.5429 8.11507 40.619 9.16632 40.0993C9.81991 39.776 10.2304 39.1077 10.2304 38.3787C10.2304 37.3163 9.36913 36.4552 8.30678 36.4552H5.23038" stroke="url(#paint9_linear_9_5180)" stroke-width="2.34375" stroke-miterlimit="10" stroke-linecap="round" stroke-linejoin="round"/>
<path d="M49.4563 24.6077H25.9595C23.1424 24.6077 20.497 25.9577 18.8424 28.239L16.0064 32.1499C15.6533 32.639 16.0017 33.3234 16.6064 33.3234H49.8563" stroke="url(#paint10_linear_9_5180)" stroke-width="2.34375" stroke-miterlimit="10" stroke-linecap="round" stroke-linejoin="round"/>
<path d="M54.7048 33.3232H60.9657" stroke="url(#paint11_linear_9_5180)" stroke-width="2.34375" stroke-miterlimit="10" stroke-linecap="round" stroke-linejoin="round"/>
<path d="M34.8408 24.6075L32.5772 33.3235" stroke="url(#paint12_linear_9_5180)" stroke-width="2.34375" stroke-miterlimit="10" stroke-linecap="round" stroke-linejoin="round"/>
<path d="M49.8566 31.5602V36.017C49.8566 36.4231 50.1857 36.7522 50.5916 36.7522H52.7585C53.833 36.7522 54.7041 35.8811 54.7041 34.8064V32.7708C54.7041 31.6963 53.833 30.825 52.7585 30.825H50.5916C50.1857 30.825 49.8566 31.1542 49.8566 31.5602Z" stroke="url(#paint13_linear_9_5180)" stroke-width="2.34375" stroke-miterlimit="10" stroke-linecap="round" stroke-linejoin="round"/>
<path d="M36.7684 41.6066V45.9236H39.8709" stroke="url(#paint14_linear_9_5180)" stroke-width="2.34375" stroke-miterlimit="10" stroke-linecap="round" stroke-linejoin="round"/>
<path d="M43.9525 50.1791H32.6869C32.2555 50.1791 31.9056 49.8294 31.9056 49.3978V38.1322C31.9056 37.7008 32.2555 37.351 32.6869 37.351H43.9525C44.3839 37.351 44.7338 37.7008 44.7338 38.1322V49.3978C44.7338 49.8294 44.3839 50.1791 43.9525 50.1791Z" stroke="url(#paint15_linear_9_5180)" stroke-width="2.34375" stroke-miterlimit="10" stroke-linecap="round" stroke-linejoin="round"/>
<defs>
<linearGradient id="paint0_linear_9_5180" x1="54.6986" y1="54.4171" x2="54.6986" y2="20.5015" gradientUnits="userSpaceOnUse">
<stop stop-color="#449A98"/>
<stop offset="1" stop-color="#69BEB6"/>
</linearGradient>
<linearGradient id="paint1_linear_9_5180" x1="55.0532" y1="55.1185" x2="55.0532" y2="54.1185" gradientUnits="userSpaceOnUse">
<stop stop-color="#449A98"/>
<stop offset="1" stop-color="#69BEB6"/>
</linearGradient>
<linearGradient id="paint2_linear_9_5180" x1="33.1532" y1="55.1185" x2="33.1532" y2="54.1185" gradientUnits="userSpaceOnUse">
<stop stop-color="#449A98"/>
<stop offset="1" stop-color="#69BEB6"/>
</linearGradient>
<linearGradient id="paint3_linear_9_5180" x1="13.1361" y1="55.1185" x2="13.1361" y2="20.5015" gradientUnits="userSpaceOnUse">
<stop stop-color="#449A98"/>
<stop offset="1" stop-color="#69BEB6"/>
</linearGradient>
<linearGradient id="paint4_linear_9_5180" x1="65.0196" y1="59.4985" x2="65.0196" y2="45.7268" gradientUnits="userSpaceOnUse">
<stop stop-color="#449A98"/>
<stop offset="1" stop-color="#69BEB6"/>
</linearGradient>
<linearGradient id="paint5_linear_9_5180" x1="65.0197" y1="55.1185" x2="65.0197" y2="50.1068" gradientUnits="userSpaceOnUse">
<stop stop-color="#449A98"/>
<stop offset="1" stop-color="#69BEB6"/>
</linearGradient>
<linearGradient id="paint6_linear_9_5180" x1="13.8583" y1="59.4985" x2="13.8583" y2="45.7268" gradientUnits="userSpaceOnUse">
<stop stop-color="#449A98"/>
<stop offset="1" stop-color="#69BEB6"/>
</linearGradient>
<linearGradient id="paint7_linear_9_5180" x1="13.8582" y1="55.1185" x2="13.8582" y2="50.1068" gradientUnits="userSpaceOnUse">
<stop stop-color="#449A98"/>
<stop offset="1" stop-color="#69BEB6"/>
</linearGradient>
<linearGradient id="paint8_linear_9_5180" x1="74.9112" y1="45.3549" x2="83" y2="38.5" gradientUnits="userSpaceOnUse">
<stop stop-color="#449A98"/>
<stop offset="1" stop-color="#69BEB6"/>
</linearGradient>
<linearGradient id="paint9_linear_9_5180" x1="5.71538" y1="44.1671" x2="10.5" y2="33.5" gradientUnits="userSpaceOnUse">
<stop stop-color="#449A98"/>
<stop offset="1" stop-color="#69BEB6"/>
</linearGradient>
<linearGradient id="paint10_linear_9_5180" x1="32.8606" y1="33.3234" x2="32.8606" y2="24.6077" gradientUnits="userSpaceOnUse">
<stop stop-color="#449A98"/>
<stop offset="1" stop-color="#69BEB6"/>
</linearGradient>
<linearGradient id="paint11_linear_9_5180" x1="57.8352" y1="33.3232" x2="64.5" y2="33.5" gradientUnits="userSpaceOnUse">
<stop stop-color="#449A98"/>
<stop offset="1" stop-color="#69BEB6"/>
</linearGradient>
<linearGradient id="paint12_linear_9_5180" x1="33.709" y1="33.3235" x2="33.709" y2="24.6075" gradientUnits="userSpaceOnUse">
<stop stop-color="#449A98"/>
<stop offset="1" stop-color="#69BEB6"/>
</linearGradient>
<linearGradient id="paint13_linear_9_5180" x1="52.2803" y1="36.7522" x2="63" y2="33.5" gradientUnits="userSpaceOnUse">
<stop stop-color="#449A98"/>
<stop offset="1" stop-color="#69BEB6"/>
</linearGradient>
<linearGradient id="paint14_linear_9_5180" x1="38.3196" y1="45.9236" x2="38.3196" y2="41.6066" gradientUnits="userSpaceOnUse">
<stop stop-color="#449A98"/>
<stop offset="1" stop-color="#69BEB6"/>
</linearGradient>
<linearGradient id="paint15_linear_9_5180" x1="38.3197" y1="50.1791" x2="38.3197" y2="37.351" gradientUnits="userSpaceOnUse">
<stop stop-color="#449A98"/>
<stop offset="1" stop-color="#69BEB6"/>
</linearGradient>
</defs>
</svg>
