<svg width="80" height="80" viewBox="0 0 80 80" fill="none" xmlns="http://www.w3.org/2000/svg">
<g clip-path="url(#clip0_9_4625)">
<path d="M40 1.17188V8.09375M44.6875 42.9208V28.5477C44.6875 28.1558 44.4917 27.79 44.1656 27.5727L42.9937 26.7914C42.6001 26.5289 42.0873 26.5289 41.6937 26.7914L40 27.9205V73.8281M39.8331 35.0527L35.8562 33.727C35.5131 33.6127 35.1365 33.6631 34.8356 33.8637L33.4906 34.7605C33.1647 34.9778 32.9687 35.3438 32.9687 35.7355V49.1708M39.8394 64.7878L30.7705 64.3344C30.6739 64.3295 30.577 64.3367 30.4822 64.3556L29.2233 64.6073C28.6755 64.7169 28.2812 65.1978 28.2812 65.7564L28.2811 73.828M39.8369 50.697L33.4569 49.2792C33.145 49.2098 32.8184 49.2709 32.5526 49.4481L31.1469 50.3853C30.8209 50.6027 30.625 50.9686 30.625 51.3603V64.0144M35.3125 49.738V73.8281M44.6875 58.2452V73.8281M49.375 73.8281V59.3392C49.375 58.86 49.0833 58.4291 48.6383 58.2511L47.3165 57.7223C47.1295 57.6475 46.9262 57.6222 46.7264 57.6487L40.1512 58.5255M47.0312 51.6366V57.1806M47.0312 46.9491V45.1105C47.0312 44.7186 46.8355 44.3528 46.5094 44.1355L45.1644 43.2387C44.8634 43.0381 44.4869 42.9877 44.1437 43.102L40.1681 44.4272M42.3437 21.4823V26.358M42.3437 16.7948V11.0791C42.3437 10.7683 42.2203 10.4702 42.0005 10.2505L40 8.25L37.9995 10.2505C37.7797 10.4703 37.6562 10.7683 37.6562 11.0791V19.1875L35.6558 21.188C35.4359 21.4078 35.3125 21.7058 35.3125 22.0166V33.5458M21.1965 78.8281H58.8034M55.9334 78.5156V75.3125C55.9334 74.6653 55.4087 74.1406 54.7615 74.1406H25.2384C24.5912 74.1406 24.0665 74.6653 24.0665 75.3125V78.5156M37.6562 74.323V78.6459M42.3437 74.323V78.6459" stroke="url(#paint0_linear_9_4625)" stroke-width="2.34375" stroke-miterlimit="10" stroke-linecap="round" stroke-linejoin="round"/>
</g>
<defs>
<linearGradient id="paint0_linear_9_4625" x1="40" y1="1.17187" x2="40" y2="78.8281" gradientUnits="userSpaceOnUse">
<stop stop-color="#449A98"/>
<stop offset="1" stop-color="#69BEB6"/>
</linearGradient>
<clipPath id="clip0_9_4625">
<rect width="80" height="80" fill="white"/>
</clipPath>
</defs>
</svg>
