<svg width="80" height="80" viewBox="0 0 80 80" fill="none" xmlns="http://www.w3.org/2000/svg">
<path d="M16.325 15.6594V5.90625C16.325 3.29219 18.4438 1.17188 21.0594 1.17188H54.2047H58.9407C61.5563 1.17188 63.675 3.29219 63.675 5.90625V56.9531" stroke="url(#paint0_linear_9_5257)" stroke-width="2.34375" stroke-miterlimit="10" stroke-linecap="round" stroke-linejoin="round"/>
<path d="M63.675 62.4219V74.0938C63.675 76.7079 61.5563 78.8282 58.9407 78.8282H54.2047H21.0594C18.4438 78.8282 16.325 76.7079 16.325 74.0938V21.1282" stroke="url(#paint1_linear_9_5257)" stroke-width="2.34375" stroke-miterlimit="10" stroke-linecap="round" stroke-linejoin="round"/>
<path d="M37.6325 5.90698H42.3675" stroke="url(#paint2_linear_9_5257)" stroke-width="2.34375" stroke-miterlimit="10" stroke-linecap="round" stroke-linejoin="round"/>
<path d="M24.2163 48.9406H55.7838" stroke="url(#paint3_linear_9_5257)" stroke-width="2.34375" stroke-miterlimit="10" stroke-linecap="round" stroke-linejoin="round"/>
<path d="M36.8432 44.2054H43.1567" stroke="url(#paint4_linear_9_5257)" stroke-width="2.34375" stroke-miterlimit="10" stroke-linecap="round" stroke-linejoin="round"/>
<path d="M32.1081 44.2054H30.5297" stroke="url(#paint5_linear_9_5257)" stroke-width="2.34375" stroke-miterlimit="10" stroke-linecap="round" stroke-linejoin="round"/>
<path d="M47.8919 44.2054H49.4703" stroke="url(#paint6_linear_9_5257)" stroke-width="2.34375" stroke-miterlimit="10" stroke-linecap="round" stroke-linejoin="round"/>
<path d="M28.1622 39.4702L29.4328 31.8464C29.6105 30.7809 30.5324 30 31.6125 30H48.3875C49.4677 30 50.3895 30.7809 50.5672 31.8464L51.8378 39.4702" stroke="url(#paint7_linear_9_5257)" stroke-width="2.34375" stroke-miterlimit="10" stroke-linecap="round" stroke-linejoin="round"/>
<path d="M54.2055 48.9405H25.7946V41.0487C25.7946 40.1769 26.5013 39.4702 27.373 39.4702H52.6271C53.4988 39.4702 54.2055 40.1769 54.2055 41.0487V48.9405Z" stroke="url(#paint8_linear_9_5257)" stroke-width="2.34375" stroke-miterlimit="10" stroke-linecap="round" stroke-linejoin="round"/>
<path d="M32.1081 53.6756H28.9513C28.0796 53.6756 27.3729 52.9689 27.3729 52.0971V48.9404H33.6863V52.0971C33.6863 52.969 32.9798 53.6756 32.1081 53.6756Z" stroke="url(#paint9_linear_9_5257)" stroke-width="2.34375" stroke-miterlimit="10" stroke-linecap="round" stroke-linejoin="round"/>
<path d="M47.8918 53.6756H51.0486C51.9203 53.6756 52.627 52.9689 52.627 52.0971V48.9404H46.3134V52.0971C46.3134 52.969 47.0201 53.6756 47.8918 53.6756Z" stroke="url(#paint10_linear_9_5257)" stroke-width="2.34375" stroke-miterlimit="10" stroke-linecap="round" stroke-linejoin="round"/>
<defs>
<linearGradient id="paint0_linear_9_5257" x1="40" y1="1.17187" x2="40" y2="56.9531" gradientUnits="userSpaceOnUse">
<stop stop-color="#449A98"/>
<stop offset="1" stop-color="#69BEB6"/>
</linearGradient>
<linearGradient id="paint1_linear_9_5257" x1="40" y1="21.1282" x2="40" y2="78.8282" gradientUnits="userSpaceOnUse">
<stop stop-color="#449A98"/>
<stop offset="1" stop-color="#69BEB6"/>
</linearGradient>
<linearGradient id="paint2_linear_9_5257" x1="36" y1="6.5" x2="45.5" y2="6.5" gradientUnits="userSpaceOnUse">
<stop stop-color="#449A98"/>
<stop offset="1" stop-color="#69BEB6"/>
</linearGradient>
<linearGradient id="paint3_linear_9_5257" x1="40" y1="48.9406" x2="40" y2="49.9406" gradientUnits="userSpaceOnUse">
<stop stop-color="#449A98"/>
<stop offset="1" stop-color="#69BEB6"/>
</linearGradient>
<linearGradient id="paint4_linear_9_5257" x1="40" y1="44.2054" x2="40" y2="45.2054" gradientUnits="userSpaceOnUse">
<stop stop-color="#449A98"/>
<stop offset="1" stop-color="#69BEB6"/>
</linearGradient>
<linearGradient id="paint5_linear_9_5257" x1="31.3189" y1="44.2054" x2="31.3189" y2="45.2054" gradientUnits="userSpaceOnUse">
<stop stop-color="#449A98"/>
<stop offset="1" stop-color="#69BEB6"/>
</linearGradient>
<linearGradient id="paint6_linear_9_5257" x1="48.6811" y1="44.2054" x2="48.6811" y2="45.2054" gradientUnits="userSpaceOnUse">
<stop stop-color="#449A98"/>
<stop offset="1" stop-color="#69BEB6"/>
</linearGradient>
<linearGradient id="paint7_linear_9_5257" x1="40" y1="30" x2="40" y2="39.4702" gradientUnits="userSpaceOnUse">
<stop stop-color="#449A98"/>
<stop offset="1" stop-color="#69BEB6"/>
</linearGradient>
<linearGradient id="paint8_linear_9_5257" x1="56" y1="36.7011" x2="40.0001" y2="48.9405" gradientUnits="userSpaceOnUse">
<stop stop-color="#449A98"/>
<stop offset="1" stop-color="#69BEB6"/>
</linearGradient>
<linearGradient id="paint9_linear_9_5257" x1="30.5296" y1="48.9404" x2="30.5296" y2="53.6756" gradientUnits="userSpaceOnUse">
<stop stop-color="#449A98"/>
<stop offset="1" stop-color="#69BEB6"/>
</linearGradient>
<linearGradient id="paint10_linear_9_5257" x1="49.4702" y1="48.9404" x2="49.4702" y2="53.6756" gradientUnits="userSpaceOnUse">
<stop stop-color="#449A98"/>
<stop offset="1" stop-color="#69BEB6"/>
</linearGradient>
</defs>
</svg>
