<svg width="80" height="80" viewBox="0 0 80 80" fill="none" xmlns="http://www.w3.org/2000/svg">
<path d="M60.0414 22.0198C60.8203 21.1368 61.2928 19.9771 61.2928 18.7071C61.2928 15.9401 59.0497 13.697 56.2827 13.697C53.5158 13.697 51.2727 15.9401 51.2727 18.7071" stroke="url(#paint0_linear_9_4972)" stroke-width="2.34375" stroke-miterlimit="10" stroke-linecap="round" stroke-linejoin="round"/>
<path d="M50.0213 22.0198C50.8002 21.1368 51.2727 19.9771 51.2727 18.7071C51.2727 15.9401 49.0296 13.697 46.2625 13.697C43.4957 13.697 41.2525 15.9401 41.2525 18.7071" stroke="url(#paint1_linear_9_4972)" stroke-width="2.34375" stroke-miterlimit="10" stroke-linecap="round" stroke-linejoin="round"/>
<path d="M40.0011 22.0198C40.7799 21.1368 41.2525 19.9771 41.2525 18.7071C41.2525 15.9401 39.0094 13.697 36.2424 13.697C33.4753 13.697 31.2324 15.9401 31.2324 18.7071" stroke="url(#paint2_linear_9_4972)" stroke-width="2.34375" stroke-miterlimit="10" stroke-linecap="round" stroke-linejoin="round"/>
<path d="M29.9809 22.0198C30.7598 21.1368 31.2323 19.9771 31.2323 18.7071C31.2323 15.9401 28.9892 13.697 26.2223 13.697C23.4553 13.697 21.2122 15.9401 21.2122 18.7071" stroke="url(#paint3_linear_9_4972)" stroke-width="2.34375" stroke-miterlimit="10" stroke-linecap="round" stroke-linejoin="round"/>
<path d="M26.2221 66.303H1.17194L13.2057 20.5747C13.4952 19.4742 14.4902 18.7072 15.6282 18.7072H16.776C17.9141 18.7072 18.909 19.4742 19.1987 20.5747L31.2324 66.303" stroke="url(#paint4_linear_9_4972)" stroke-width="2.34375" stroke-miterlimit="10" stroke-linecap="round" stroke-linejoin="round"/>
<path d="M16.2021 18.7072H64.3718C65.5097 18.7072 66.5047 19.4742 66.7944 20.5747L78.8282 66.303H31.2324" stroke="url(#paint5_linear_9_4972)" stroke-width="2.34375" stroke-miterlimit="10" stroke-linecap="round" stroke-linejoin="round"/>
<path d="M60.0403 26.2223H21.2122" stroke="url(#paint6_linear_9_4972)" stroke-width="2.34375" stroke-miterlimit="10" stroke-linecap="round" stroke-linejoin="round"/>
<path d="M67.5555 26.2223H65.0505" stroke="url(#paint7_linear_9_4972)" stroke-width="2.34375" stroke-miterlimit="10" stroke-linecap="round" stroke-linejoin="round"/>
<path d="M47.3432 38.2737L47.0562 43.3128H41.7578C41.0406 43.3128 40.9884 44.2304 41.6815 44.652L46.8024 47.7662L46.5154 52.8053C46.4765 53.4875 47.4092 54.0546 47.8765 53.6331L51.3284 50.5189L56.4493 53.6331C57.1424 54.0546 57.7712 53.4875 57.3668 52.8053L54.3793 47.7662L57.8313 44.652C58.2985 44.2304 57.7545 43.3128 57.0373 43.3128H51.7388L48.7515 38.2737C48.3471 37.5915 47.3821 37.5915 47.3432 38.2737Z" stroke="url(#paint8_linear_9_4972)" stroke-width="2.34375" stroke-miterlimit="10" stroke-linecap="round" stroke-linejoin="round"/>
<defs>
<linearGradient id="paint0_linear_9_4972" x1="56.2828" y1="22.0198" x2="56.2828" y2="13.697" gradientUnits="userSpaceOnUse">
<stop stop-color="#449A98"/>
<stop offset="1" stop-color="#69BEB6"/>
</linearGradient>
<linearGradient id="paint1_linear_9_4972" x1="46.2626" y1="22.0198" x2="46.2626" y2="13.697" gradientUnits="userSpaceOnUse">
<stop stop-color="#449A98"/>
<stop offset="1" stop-color="#69BEB6"/>
</linearGradient>
<linearGradient id="paint2_linear_9_4972" x1="36.2425" y1="22.0198" x2="36.2425" y2="13.697" gradientUnits="userSpaceOnUse">
<stop stop-color="#449A98"/>
<stop offset="1" stop-color="#69BEB6"/>
</linearGradient>
<linearGradient id="paint3_linear_9_4972" x1="26.2223" y1="22.0198" x2="26.2223" y2="13.697" gradientUnits="userSpaceOnUse">
<stop stop-color="#449A98"/>
<stop offset="1" stop-color="#69BEB6"/>
</linearGradient>
<linearGradient id="paint4_linear_9_4972" x1="16.2022" y1="66.303" x2="16.2022" y2="18.7072" gradientUnits="userSpaceOnUse">
<stop stop-color="#449A98"/>
<stop offset="1" stop-color="#69BEB6"/>
</linearGradient>
<linearGradient id="paint5_linear_9_4972" x1="47.5151" y1="66.303" x2="47.5151" y2="18.7072" gradientUnits="userSpaceOnUse">
<stop stop-color="#449A98"/>
<stop offset="1" stop-color="#69BEB6"/>
</linearGradient>
<linearGradient id="paint6_linear_9_4972" x1="61" y1="26.5" x2="8.5" y2="26.5" gradientUnits="userSpaceOnUse">
<stop stop-color="#449A98"/>
<stop offset="1" stop-color="#69BEB6"/>
</linearGradient>
<linearGradient id="paint7_linear_9_4972" x1="45.5" y1="27" x2="73.5" y2="26" gradientUnits="userSpaceOnUse">
<stop stop-color="#449A98"/>
<stop offset="1" stop-color="#69BEB6"/>
</linearGradient>
<linearGradient id="paint8_linear_9_4972" x1="49.5975" y1="53.7778" x2="49.5975" y2="37.7621" gradientUnits="userSpaceOnUse">
<stop stop-color="#449A98"/>
<stop offset="1" stop-color="#69BEB6"/>
</linearGradient>
</defs>
</svg>
