<svg width="80" height="80" viewBox="0 0 80 80" fill="none" xmlns="http://www.w3.org/2000/svg">
<mask id="mask0_9_4736" style="mask-type:luminance" maskUnits="userSpaceOnUse" x="9" y="9" width="63" height="62">
<path d="M9 9H72V71H9V9Z" fill="white"/>
</mask>
<g mask="url(#mask0_9_4736)">
<path d="M70.0918 40C70.0918 56.6193 56.6193 70.0918 40 70.0918C23.3807 70.0918 9.9082 56.6193 9.9082 40C9.9082 23.3807 23.3807 9.9082 40 9.9082C56.6193 9.9082 70.0918 23.3807 70.0918 40Z" stroke="url(#paint0_linear_9_4736)" stroke-width="2.34375" stroke-miterlimit="10"/>
<path d="M50.0555 63.8032C46.9649 65.1104 43.5668 65.8334 40 65.8334C25.7326 65.8334 14.1666 54.2673 14.1666 40C14.1666 30.9902 18.7792 23.0576 25.7715 18.4347" stroke="url(#paint1_linear_9_4736)" stroke-width="2.34375" stroke-miterlimit="10" stroke-linecap="round"/>
<path d="M28.9768 16.6298C32.3201 15.05 36.0569 14.1666 40 14.1666C54.2674 14.1666 65.8334 25.7326 65.8334 39.9999C65.8334 49.3629 60.8522 57.5625 53.3955 62.0933" stroke="url(#paint2_linear_9_4736)" stroke-width="2.34375" stroke-miterlimit="10" stroke-linecap="round"/>
<path d="M40 14.2878V18.2764" stroke="url(#paint3_linear_9_4736)" stroke-width="2.34375" stroke-miterlimit="10" stroke-linecap="round" stroke-linejoin="round"/>
<path d="M58.1813 21.8186L55.361 24.639" stroke="url(#paint4_linear_9_4736)" stroke-width="2.34375" stroke-miterlimit="10" stroke-linecap="round" stroke-linejoin="round"/>
<path d="M65.7123 40H61.7237" stroke="url(#paint5_linear_9_4736)" stroke-width="2.34375" stroke-miterlimit="10" stroke-linecap="round" stroke-linejoin="round"/>
<path d="M58.1813 58.1813L55.361 55.3609" stroke="url(#paint6_linear_9_4736)" stroke-width="2.34375" stroke-miterlimit="10" stroke-linecap="round" stroke-linejoin="round"/>
<path d="M40 65.7123V61.7237" stroke="url(#paint7_linear_9_4736)" stroke-width="2.34375" stroke-miterlimit="10" stroke-linecap="round" stroke-linejoin="round"/>
<path d="M21.8187 58.1813L24.639 55.3609" stroke="url(#paint8_linear_9_4736)" stroke-width="2.34375" stroke-miterlimit="10" stroke-linecap="round" stroke-linejoin="round"/>
<path d="M14.2877 40H18.2763" stroke="url(#paint9_linear_9_4736)" stroke-width="2.34375" stroke-miterlimit="10" stroke-linecap="round" stroke-linejoin="round"/>
<path d="M21.8187 21.8186L24.639 24.639" stroke="url(#paint10_linear_9_4736)" stroke-width="2.34375" stroke-miterlimit="10" stroke-linecap="round" stroke-linejoin="round"/>
<path d="M51.0024 28.6473L41.2843 38.3654" stroke="url(#paint11_linear_9_4736)" stroke-width="2.34375" stroke-miterlimit="10" stroke-linecap="round" stroke-linejoin="round"/>
<path d="M33.2122 32.862L38.7156 38.3654" stroke="url(#paint12_linear_9_4736)" stroke-width="2.34375" stroke-miterlimit="10" stroke-linecap="round" stroke-linejoin="round"/>
<path d="M36.791 49.5664H43.209" stroke="url(#paint13_linear_9_4736)" stroke-width="2.34375" stroke-miterlimit="10" stroke-linecap="round" stroke-linejoin="round"/>
</g>
<defs>
<linearGradient id="paint0_linear_9_4736" x1="40" y1="70.0918" x2="40" y2="9.9082" gradientUnits="userSpaceOnUse">
<stop stop-color="#69BEB6"/>
<stop offset="1" stop-color="#6CC8BF"/>
</linearGradient>
<linearGradient id="paint1_linear_9_4736" x1="32.1111" y1="65.8334" x2="32.1111" y2="18.4347" gradientUnits="userSpaceOnUse">
<stop stop-color="#449A98"/>
<stop offset="1" stop-color="#69BEB6"/>
</linearGradient>
<linearGradient id="paint2_linear_9_4736" x1="47.4051" y1="62.0933" x2="47.4051" y2="14.1666" gradientUnits="userSpaceOnUse">
<stop stop-color="#449A98"/>
<stop offset="1" stop-color="#69BEB6"/>
</linearGradient>
<linearGradient id="paint3_linear_9_4736" x1="40.5" y1="18.2764" x2="40.5" y2="14.2878" gradientUnits="userSpaceOnUse">
<stop stop-color="#449A98"/>
<stop offset="1" stop-color="#69BEB6"/>
</linearGradient>
<linearGradient id="paint4_linear_9_4736" x1="54.5" y1="25" x2="58" y2="21.5" gradientUnits="userSpaceOnUse">
<stop offset="0.00361064" stop-color="#449A98"/>
<stop offset="1" stop-color="#69BEB6"/>
</linearGradient>
<linearGradient id="paint5_linear_9_4736" x1="62" y1="40" x2="69.5" y2="40" gradientUnits="userSpaceOnUse">
<stop stop-color="#449A98"/>
<stop offset="1" stop-color="#69BEB6"/>
</linearGradient>
<linearGradient id="paint6_linear_9_4736" x1="56.7711" y1="58.1813" x2="56.7711" y2="55.3609" gradientUnits="userSpaceOnUse">
<stop stop-color="#449A98"/>
<stop offset="1" stop-color="#69BEB6"/>
</linearGradient>
<linearGradient id="paint7_linear_9_4736" x1="40.5" y1="65.7123" x2="40.5" y2="61.7237" gradientUnits="userSpaceOnUse">
<stop stop-color="#449A98"/>
<stop offset="1" stop-color="#69BEB6"/>
</linearGradient>
<linearGradient id="paint8_linear_9_4736" x1="23.2289" y1="58.1813" x2="23.2289" y2="55.3609" gradientUnits="userSpaceOnUse">
<stop stop-color="#449A98"/>
<stop offset="1" stop-color="#69BEB6"/>
</linearGradient>
<linearGradient id="paint9_linear_9_4736" x1="5.66642" y1="40" x2="23.3375" y2="40" gradientUnits="userSpaceOnUse">
<stop stop-color="#449A98"/>
<stop offset="1" stop-color="#69BEB6"/>
</linearGradient>
<linearGradient id="paint10_linear_9_4736" x1="28" y1="30" x2="20.5" y2="22" gradientUnits="userSpaceOnUse">
<stop stop-color="#449A98"/>
<stop offset="1" stop-color="#69BEB6"/>
</linearGradient>
<linearGradient id="paint11_linear_9_4736" x1="46.1434" y1="38.3654" x2="46.1434" y2="28.6473" gradientUnits="userSpaceOnUse">
<stop stop-color="#449A98"/>
<stop offset="1" stop-color="#69BEB6"/>
</linearGradient>
<linearGradient id="paint12_linear_9_4736" x1="35.9639" y1="38.3654" x2="35.9639" y2="32.862" gradientUnits="userSpaceOnUse">
<stop stop-color="#449A98"/>
<stop offset="1" stop-color="#69BEB6"/>
</linearGradient>
<linearGradient id="paint13_linear_9_4736" x1="40" y1="49.5664" x2="40" y2="48.5664" gradientUnits="userSpaceOnUse">
<stop stop-color="#449A98"/>
<stop offset="1" stop-color="#69BEB6"/>
</linearGradient>
</defs>
</svg>
