<svg width="80" height="80" viewBox="0 0 80 80" fill="none" xmlns="http://www.w3.org/2000/svg">
<path fill-rule="evenodd" clip-rule="evenodd" d="M78.8275 70.3076H47.71L43.5345 66.5527C43.053 66.12 42.312 66.1591 41.8787 66.6412C41.4459 67.1222 41.4856 67.8638 41.9666 68.2965L44.2035 70.3076H7.95471L15.8081 62.2791C16.3434 61.7322 17.0892 61.4178 17.8546 61.4178H33.219C33.927 61.4178 34.6069 61.6785 35.1337 62.1521L37.7155 64.4739C38.197 64.906 38.938 64.8676 39.3713 64.3854C39.8041 63.9044 39.7644 63.1628 39.2828 62.7301L36.7017 60.4089C35.744 59.5477 34.5074 59.0735 33.219 59.0735H27.4359L27.4237 59.0302C26.4288 55.4889 23.4229 52.8955 19.8627 52.3486V30.6708H21.2543C22.5305 30.6708 23.5693 29.6326 23.5693 28.3557V26.1377C24.8169 26.0254 25.7983 24.975 25.7983 23.6987V18.5205C25.7983 17.1692 24.6991 16.0699 23.3478 16.0699H21.4575L22.0911 12.5031C22.2357 11.6864 22.0135 10.8533 21.4807 10.2179C20.9479 9.58191 20.166 9.21753 19.3365 9.21753H17.3297V8.67249C17.3297 8.0249 16.8048 7.5 16.1572 7.5C15.5096 7.5 14.9847 8.0249 14.9847 8.67249V9.21753H12.9773C12.1497 9.21753 11.369 9.58069 10.8362 10.2142C10.3033 10.849 10.0793 11.6803 10.2222 12.4976L10.8484 16.0699H8.96667C7.61536 16.0699 6.51611 17.1692 6.51611 18.5205V23.6987C6.51611 24.975 7.49695 26.0254 8.74451 26.1377V28.3563C8.74451 29.6326 9.78271 30.6714 11.0596 30.6714H12.4518V36.3623C12.4518 37.0099 12.9767 37.5348 13.6243 37.5348C14.2719 37.5348 14.7968 37.0099 14.7968 36.3623V30.6714H17.5183V52.2406H14.7968V41.7926C14.7968 41.145 14.2719 40.6201 13.6243 40.6201C12.9767 40.6201 12.4518 41.145 12.4518 41.7926V52.2406H10.7483C5.68542 52.2406 1.56677 56.3593 1.56677 61.4221V70.3082H1.17249C0.524902 70.3082 0 70.8325 0 71.4801C0 72.1277 0.524902 72.6526 1.17249 72.6526H78.8275C79.4751 72.6526 80 72.1277 80 71.4801C80 70.8325 79.4751 70.3076 78.8275 70.3076ZM12.5311 12.0935C12.5 11.9122 12.5806 11.7841 12.6312 11.7236C12.6819 11.6632 12.7942 11.5619 12.9773 11.5619H16.1554H16.1566H16.1584H19.3359C19.5203 11.5619 19.6326 11.6638 19.6832 11.7242C19.7339 11.7847 19.8138 11.9128 19.7821 12.0935L19.0759 16.0699H13.2288L12.5311 12.0935ZM8.86108 18.5205C8.86108 18.4625 8.90808 18.4149 8.96667 18.4149H23.3472C23.4058 18.4149 23.4534 18.4625 23.4534 18.5205V23.6987C23.4534 23.7573 23.4058 23.8043 23.3472 23.8043H8.96667C8.90808 23.8043 8.86108 23.7573 8.86108 23.6987V18.5205ZM21.2244 26.1493V28.3264H11.0889V26.1493H21.2244ZM3.91113 61.4215C3.91113 57.652 6.97815 54.585 10.7483 54.585H18.4607C21.3586 54.585 23.9514 56.402 24.9701 59.0735H17.8546C16.4624 59.0735 15.1056 59.6442 14.1315 60.6396L4.67529 70.3076H3.91113V61.4215ZM21.4392 21.1096C21.4392 21.7572 20.9143 22.2821 20.2667 22.2821C19.6191 22.2821 19.0942 21.7572 19.0942 21.1096C19.0942 20.462 19.6191 19.9371 20.2667 19.9371C20.9143 19.9371 21.4392 20.462 21.4392 21.1096ZM16.2512 22.2821C16.8988 22.2821 17.4237 21.7572 17.4237 21.1096C17.4237 20.462 16.8988 19.9371 16.2512 19.9371C15.6036 19.9371 15.0787 20.462 15.0787 21.1096C15.0787 21.7572 15.6036 22.2821 16.2512 22.2821ZM13.2196 21.1096C13.2196 21.7572 12.6947 22.2821 12.0471 22.2821C11.4001 22.2821 10.8752 21.7572 10.8752 21.1096C10.8752 20.462 11.4001 19.9371 12.0471 19.9371C12.6947 19.9371 13.2196 20.462 13.2196 21.1096ZM29.7315 42.9169L31.3526 42.3511L26.8726 35.1844C26.6425 34.8151 26.5979 34.3524 26.7536 33.946C26.9098 33.5401 27.2528 33.2257 27.6709 33.1061L29.5331 32.5733C30.8435 32.1985 32.2376 32.5122 33.2605 33.4137L40.0073 39.3305L51.6852 35.2558C52.2968 35.0421 52.9651 35.365 53.1781 35.976C53.3917 36.5869 53.0689 37.2559 52.4579 37.4689L30.4968 45.1331C30.4907 45.1349 30.4852 45.1367 30.4798 45.1386C30.2454 45.2167 30.0885 45.4352 30.0885 45.683C30.0885 45.7355 30.0965 45.7904 30.1111 45.8423C30.1807 46.0877 30.4083 46.258 30.6653 46.258H30.6702L42.3743 46.1475C42.6996 46.1451 43.0225 46.0981 43.3362 46.0083L51.3959 43.739C51.4331 43.44 51.5271 43.1482 51.6773 42.8772C51.9855 42.3218 52.4921 41.9196 53.1024 41.7444L58.1702 40.2948C59.1284 40.0208 60.1196 40.3791 60.6989 41.12L75.2893 37.0111C76.073 36.7871 76.181 36.095 76.1951 35.8887C76.2097 35.6818 76.1981 34.9811 75.448 34.6485L74.4684 34.2145L70.4645 35.3186C70.3601 35.3479 70.2551 35.3614 70.152 35.3614C69.6381 35.3614 69.1663 35.0208 69.0228 34.5008C68.8507 33.8764 69.2169 33.2312 69.8407 33.0591L70.9247 32.76C69.162 32.2766 67.2913 32.3212 65.5335 32.9059L58.0426 35.5201C57.431 35.7337 56.7627 35.4108 56.5491 34.7998C56.3361 34.1883 56.659 33.5199 57.2699 33.3063L64.7687 30.6897C64.7719 30.6885 64.7754 30.6873 64.7789 30.6863L64.784 30.6848C67.5452 29.7626 70.5316 29.9048 73.1922 31.0846L76.3977 32.5049C77.8021 33.1269 78.6408 34.5191 78.534 36.0511C78.4284 37.5824 77.4054 38.8446 75.9296 39.267L61.5112 43.3271L61.7188 44.0522C62.0795 45.3131 61.3471 46.6321 60.0861 46.9928L55.0183 48.4424C54.8017 48.5047 54.5801 48.5352 54.361 48.5352C53.9618 48.5352 53.5681 48.4339 53.2099 48.2349C52.6544 47.9267 52.2522 47.4207 52.0777 46.8097L51.8585 46.0443L43.9771 48.2636C43.4638 48.4107 42.9291 48.4882 42.3932 48.4919L30.6903 48.6029H30.6671C29.3652 48.6029 28.2123 47.7344 27.8559 46.4844C27.7814 46.222 27.7435 45.9528 27.7435 45.683C27.7435 44.4263 28.5419 43.3161 29.7315 42.9169ZM53.7476 43.9991C53.7421 44.0003 53.7341 44.0027 53.7274 44.0149C53.7201 44.0271 53.7225 44.0357 53.7244 44.0406L54.3317 46.1646L54.332 46.1656C54.3339 46.1706 54.3368 46.1784 54.3482 46.1847C54.3604 46.192 54.3689 46.1896 54.3738 46.1878L59.4415 44.7382C59.4592 44.7327 59.4696 44.7144 59.4647 44.6967L58.8568 42.5721C58.8526 42.5574 58.8391 42.5476 58.8245 42.5476C58.8225 42.5476 58.8205 42.5479 58.8185 42.5484L58.8153 42.5495L53.7476 43.9991ZM31.7133 35.1746C31.2903 34.8029 30.7172 34.6729 30.1782 34.8279L29.5307 35.0128L33.6225 41.5589L37.464 40.2185L31.7133 35.1746ZM64.27 37.478C64.8865 37.2803 65.2258 36.6199 65.0275 36.0034C64.8297 35.387 64.1693 35.0476 63.5529 35.246C62.9364 35.4437 62.597 36.1041 62.7954 36.7206C62.9932 37.337 63.6536 37.6764 64.27 37.478ZM61.3141 37.196C61.5119 37.8131 61.1725 38.4729 60.556 38.6707C59.9396 38.869 59.2792 38.5297 59.0814 37.9132C58.8837 37.2968 59.223 36.6364 59.8395 36.4386C60.4559 36.2402 61.1157 36.5796 61.3141 37.196ZM56.8421 39.8638C57.4585 39.6655 57.7979 39.0057 57.6001 38.3892C57.4017 37.7728 56.742 37.4334 56.1255 37.6312C55.509 37.8295 55.1697 38.4893 55.3674 39.1058C55.5652 39.7222 56.2256 40.0616 56.8421 39.8638ZM51.6535 40.2984C51.4557 39.682 51.7951 39.0216 52.4115 38.8238C53.028 38.6261 53.6878 38.9654 53.8861 39.5819C54.0839 40.1983 53.7445 40.8581 53.1281 41.0565C52.5116 41.2542 51.8518 40.9149 51.6535 40.2984ZM48.6975 40.0164C48.0811 40.2142 47.7417 40.8746 47.9395 41.491C48.1378 42.1075 48.7976 42.4468 49.4141 42.2491C50.0305 42.0507 50.3699 41.3909 50.1721 40.7745C49.9744 40.158 49.314 39.8187 48.6975 40.0164ZM44.2255 42.6837C44.0277 42.0672 44.3671 41.4074 44.9835 41.2091C45.6 41.0113 46.2604 41.3507 46.4581 41.9671C46.6559 42.5836 46.3165 43.2434 45.7001 43.4417C45.0836 43.6395 44.4238 43.3001 44.2255 42.6837ZM19.5551 63.0609H18.4241C17.7765 63.0609 17.2516 63.5858 17.2516 64.2334C17.2516 64.881 17.7765 65.4059 18.4241 65.4059H19.5551C20.2026 65.4059 20.7275 64.881 20.7275 64.2334C20.7275 63.5858 20.2026 63.0609 19.5551 63.0609ZM22.8552 63.0609H23.9868C24.6338 63.0609 25.1587 63.5858 25.1587 64.2334C25.1587 64.881 24.6338 65.4059 23.9868 65.4059H22.8552C22.2083 65.4059 21.6833 64.881 21.6833 64.2334C21.6833 63.5858 22.2083 63.0609 22.8552 63.0609ZM28.418 63.0609H27.287C26.6394 63.0609 26.1145 63.5858 26.1145 64.2334C26.1145 64.881 26.6394 65.4059 27.287 65.4059H28.418C29.0656 65.4059 29.5905 64.881 29.5905 64.2334C29.5905 63.5858 29.0656 63.0609 28.418 63.0609ZM31.7181 63.0609H32.8491C33.4967 63.0609 34.0216 63.5858 34.0216 64.2334C34.0216 64.881 33.4967 65.4059 32.8491 65.4059H31.7181C31.0706 65.4059 30.5457 64.881 30.5457 64.2334C30.5457 63.5858 31.0706 63.0609 31.7181 63.0609ZM19.5551 66.7297H18.4241C17.7765 66.7297 17.2516 67.2546 17.2516 67.9016C17.2516 68.5492 17.7765 69.0741 18.4241 69.0741H19.5551C20.2026 69.0741 20.7275 68.5492 20.7275 67.9016C20.7275 67.2546 20.2026 66.7297 19.5551 66.7297ZM13.6243 66.7297H14.7552C15.4028 66.7297 15.9277 67.2546 15.9277 67.9016C15.9277 68.5492 15.4028 69.0741 14.7552 69.0741H13.6243C12.9767 69.0741 12.4518 68.5492 12.4518 67.9016C12.4518 67.2546 12.9767 66.7297 13.6243 66.7297ZM36.6498 66.7297C36.0022 66.7297 35.4773 67.2546 35.4773 67.9016C35.4773 68.5492 36.0022 69.0741 36.6498 69.0741H37.7814C38.4283 69.0741 38.9532 68.5492 38.9532 67.9016C38.9532 67.2546 38.4283 66.7297 37.7814 66.7297H36.6498ZM22.8552 66.7297H23.9868C24.6338 66.7297 25.1587 67.2546 25.1587 67.9016C25.1587 68.5492 24.6338 69.0741 23.9868 69.0741H22.8552C22.2083 69.0741 21.6833 68.5492 21.6833 67.9016C21.6833 67.2546 22.2083 66.7297 22.8552 66.7297ZM28.418 66.7297H27.287C26.6394 66.7297 26.1145 67.2546 26.1145 67.9016C26.1145 68.5492 26.6394 69.0741 27.287 69.0741H28.418C29.0656 69.0741 29.5905 68.5492 29.5905 67.9016C29.5905 67.2546 29.0656 66.7297 28.418 66.7297ZM31.7181 66.7297H32.8491C33.4967 66.7297 34.0216 67.2546 34.0216 67.9016C34.0216 68.5492 33.4967 69.0741 32.8491 69.0741H31.7181C31.0706 69.0741 30.5457 68.5492 30.5457 67.9016C30.5457 67.2546 31.0706 66.7297 31.7181 66.7297Z" fill="url(#paint0_linear_10_2361)"/>
<defs>
<linearGradient id="paint0_linear_10_2361" x1="4.59754" y1="73.2316" x2="53.0327" y2="-1.28397" gradientUnits="userSpaceOnUse">
<stop stop-color="#449A98"/>
<stop offset="1" stop-color="#69BEB6"/>
</linearGradient>
</defs>
</svg>
