<svg width="80" height="80" viewBox="0 0 80 80" fill="none" xmlns="http://www.w3.org/2000/svg">
<mask id="mask0_10_2307" style="mask-type:luminance" maskUnits="userSpaceOnUse" x="5" y="3" width="70" height="70">
<path d="M5 3.00001H75V73H5V3.00001Z" fill="white"/>
</mask>
<g mask="url(#mask0_10_2307)">
<path d="M44.795 73H14.265V22.145C14.265 20.7193 15.1754 19.453 16.5267 18.9988L44.795 9.49688V73Z" stroke="url(#paint0_linear_10_2307)" stroke-width="2.34375" stroke-miterlimit="10" stroke-linecap="round" stroke-linejoin="round"/>
<path d="M61.9776 66.6207V73H44.7948V38.5455H63.7536C65.01 38.5455 66.0272 39.5627 66.0272 40.8191V59.0574" stroke="url(#paint1_linear_10_2307)" stroke-width="2.34375" stroke-miterlimit="10" stroke-linecap="round" stroke-linejoin="round"/>
<path d="M44.7949 73H72.4329C73.2844 73 73.9746 72.3098 73.9746 71.4584V66.621H44.7949V73Z" stroke="url(#paint2_linear_10_2307)" stroke-width="2.34375" stroke-miterlimit="10" stroke-linecap="round" stroke-linejoin="round"/>
<path d="M67.6866 58.8107H68.2655C71.4185 58.8107 73.9746 61.3667 73.9746 64.5198V66.6208H61.9775V64.5198C61.9775 61.3667 64.5336 58.8107 67.6866 58.8107Z" stroke="url(#paint3_linear_10_2307)" stroke-width="2.34375" stroke-miterlimit="10" stroke-linecap="round" stroke-linejoin="round"/>
<path d="M7.56734 72.9999H14.2652V66.6209H6.0257V71.4582C6.0257 72.3097 6.71585 72.9999 7.56734 72.9999Z" stroke="url(#paint4_linear_10_2307)" stroke-width="2.34375" stroke-miterlimit="10" stroke-linecap="round" stroke-linejoin="round"/>
<path d="M13.4588 58.8107H14.265V66.6208H6.02539V66.2441C6.02539 62.1387 9.35353 58.8107 13.4588 58.8107Z" stroke="url(#paint5_linear_10_2307)" stroke-width="2.34375" stroke-miterlimit="10" stroke-linecap="round" stroke-linejoin="round"/>
<path d="M55.4114 38.5448H44.7949V9.49672L54.3991 18.7803C55.0461 19.4057 55.4114 20.267 55.4114 21.1669V33.7112" stroke="url(#paint6_linear_10_2307)" stroke-width="2.34375" stroke-miterlimit="10" stroke-linecap="round" stroke-linejoin="round"/>
<path d="M21.733 17.2488V10.324C21.733 9.14683 22.6873 8.19253 23.8658 8.19253H24.0818C25.259 8.19253 26.2133 9.14683 26.2133 10.324V15.7421" stroke="url(#paint7_linear_10_2307)" stroke-width="2.34375" stroke-miterlimit="10" stroke-linecap="round" stroke-linejoin="round"/>
<path d="M44.7947 17.2474L21.733 24.9994" stroke="url(#paint8_linear_10_2307)" stroke-width="2.34375" stroke-miterlimit="10" stroke-linecap="round" stroke-linejoin="round"/>
<path d="M44.7947 24.6276L21.733 32.3795" stroke="url(#paint9_linear_10_2307)" stroke-width="2.34375" stroke-miterlimit="10" stroke-linecap="round" stroke-linejoin="round"/>
<path d="M44.7947 32.0077L21.733 39.7596" stroke="url(#paint10_linear_10_2307)" stroke-width="2.34375" stroke-miterlimit="10" stroke-linecap="round" stroke-linejoin="round"/>
<path d="M44.7947 39.3877L21.733 47.1396" stroke="url(#paint11_linear_10_2307)" stroke-width="2.34375" stroke-miterlimit="10" stroke-linecap="round" stroke-linejoin="round"/>
<path d="M25.5401 53.24L21.733 54.5197" stroke="url(#paint12_linear_10_2307)" stroke-width="2.34375" stroke-miterlimit="10" stroke-linecap="round" stroke-linejoin="round"/>
<path d="M44.7947 46.7678L30.1321 51.6965" stroke="url(#paint13_linear_10_2307)" stroke-width="2.34375" stroke-miterlimit="10" stroke-linecap="round" stroke-linejoin="round"/>
<path d="M33.8856 73H21.7332V64.289C21.7332 63.6136 22.1831 63.0209 22.8336 62.8393L32.3775 60.175C33.1352 59.9633 33.8856 60.533 33.8856 61.3197V73Z" stroke="url(#paint14_linear_10_2307)" stroke-width="2.34375" stroke-miterlimit="10" stroke-linecap="round" stroke-linejoin="round"/>
<path d="M60.3668 47.0029H50.311C49.9223 47.0029 49.6071 46.6878 49.6071 46.2991V43.8309C49.6071 43.4421 49.9223 43.127 50.311 43.127H60.3668C60.7556 43.127 61.0707 43.4421 61.0707 43.8309V46.2991C61.0707 46.6878 60.7556 47.0029 60.3668 47.0029Z" stroke="url(#paint15_linear_10_2307)" stroke-width="2.34375" stroke-miterlimit="10" stroke-linecap="round" stroke-linejoin="round"/>
<path d="M60.3668 54.7999H50.311C49.9223 54.7999 49.6071 54.4848 49.6071 54.096V51.6278C49.6071 51.2391 49.9223 50.924 50.311 50.924H60.3668C60.7556 50.924 61.0707 51.2391 61.0707 51.6278V54.096C61.0707 54.4848 60.7556 54.7999 60.3668 54.7999Z" stroke="url(#paint16_linear_10_2307)" stroke-width="2.34375" stroke-miterlimit="10" stroke-linecap="round" stroke-linejoin="round"/>
<path d="M53.6371 62.6768H50.311C49.9223 62.6768 49.6071 62.3616 49.6071 61.9729V59.5047C49.6071 59.1159 49.9223 58.8008 50.311 58.8008H53.6371C54.0259 58.8008 54.341 59.1159 54.341 59.5047V61.9729C54.341 62.3616 54.0259 62.6768 53.6371 62.6768Z" stroke="url(#paint17_linear_10_2307)" stroke-width="2.34375" stroke-miterlimit="10" stroke-linecap="round" stroke-linejoin="round"/>
<path d="M27.8094 61.4501V73" stroke="url(#paint18_linear_10_2307)" stroke-width="2.34375" stroke-miterlimit="10" stroke-linecap="round" stroke-linejoin="round"/>
</g>
<defs>
<linearGradient id="paint0_linear_10_2307" x1="29.53" y1="73" x2="29.53" y2="9.49688" gradientUnits="userSpaceOnUse">
<stop stop-color="#449A98"/>
<stop offset="1" stop-color="#69BEB6"/>
</linearGradient>
<linearGradient id="paint1_linear_10_2307" x1="55.411" y1="73" x2="55.411" y2="38.5455" gradientUnits="userSpaceOnUse">
<stop stop-color="#449A98"/>
<stop offset="1" stop-color="#69BEB6"/>
</linearGradient>
<linearGradient id="paint2_linear_10_2307" x1="78.0625" y1="73" x2="45.25" y2="66.875" gradientUnits="userSpaceOnUse">
<stop stop-color="#449A98"/>
<stop offset="1" stop-color="#69BEB6"/>
</linearGradient>
<linearGradient id="paint3_linear_10_2307" x1="68" y1="75.1875" x2="73.25" y2="58.125" gradientUnits="userSpaceOnUse">
<stop stop-color="#449A98"/>
<stop offset="1" stop-color="#69BEB6"/>
</linearGradient>
<linearGradient id="paint4_linear_10_2307" x1="10.1454" y1="72.9999" x2="10.1454" y2="66.6209" gradientUnits="userSpaceOnUse">
<stop stop-color="#449A98"/>
<stop offset="1" stop-color="#69BEB6"/>
</linearGradient>
<linearGradient id="paint5_linear_10_2307" x1="27.75" y1="79.125" x2="3.25" y2="61.1875" gradientUnits="userSpaceOnUse">
<stop stop-color="#449A98"/>
<stop offset="1" stop-color="#69BEB6"/>
</linearGradient>
<linearGradient id="paint6_linear_10_2307" x1="37.8125" y1="55.0625" x2="50.1031" y2="9.49671" gradientUnits="userSpaceOnUse">
<stop stop-color="#449A98"/>
<stop offset="1" stop-color="#69BEB6"/>
</linearGradient>
<linearGradient id="paint7_linear_10_2307" x1="25.125" y1="23.1249" x2="23.8125" y2="17.8749" gradientUnits="userSpaceOnUse">
<stop stop-color="#449A98"/>
<stop offset="1" stop-color="#69BEB6"/>
</linearGradient>
<linearGradient id="paint8_linear_10_2307" x1="22.5" y1="28.375" x2="61" y2="16.5625" gradientUnits="userSpaceOnUse">
<stop stop-color="#449A98"/>
<stop offset="1" stop-color="#69BEB6"/>
</linearGradient>
<linearGradient id="paint9_linear_10_2307" x1="22.5" y1="35.7551" x2="61" y2="23.9426" gradientUnits="userSpaceOnUse">
<stop stop-color="#449A98"/>
<stop offset="1" stop-color="#69BEB6"/>
</linearGradient>
<linearGradient id="paint10_linear_10_2307" x1="4.5625" y1="52" x2="82.4375" y2="18.3125" gradientUnits="userSpaceOnUse">
<stop stop-color="#449A98"/>
<stop offset="1" stop-color="#69BEB6"/>
</linearGradient>
<linearGradient id="paint11_linear_10_2307" x1="3.6875" y1="52" x2="64.5" y2="32.3125" gradientUnits="userSpaceOnUse">
<stop stop-color="#449A98"/>
<stop offset="1" stop-color="#69BEB6"/>
</linearGradient>
<linearGradient id="paint12_linear_10_2307" x1="21.8596" y1="55.0769" x2="28.2153" y2="53.1268" gradientUnits="userSpaceOnUse">
<stop stop-color="#449A98"/>
<stop offset="1" stop-color="#69BEB6"/>
</linearGradient>
<linearGradient id="paint13_linear_10_2307" x1="30.6197" y1="53.8427" x2="55.0981" y2="46.3323" gradientUnits="userSpaceOnUse">
<stop stop-color="#449A98"/>
<stop offset="1" stop-color="#69BEB6"/>
</linearGradient>
<linearGradient id="paint14_linear_10_2307" x1="27.8094" y1="73" x2="27.8094" y2="60.1304" gradientUnits="userSpaceOnUse">
<stop stop-color="#449A98"/>
<stop offset="1" stop-color="#69BEB6"/>
</linearGradient>
<linearGradient id="paint15_linear_10_2307" x1="55.3389" y1="47.0029" x2="55.3389" y2="43.127" gradientUnits="userSpaceOnUse">
<stop stop-color="#449A98"/>
<stop offset="1" stop-color="#69BEB6"/>
</linearGradient>
<linearGradient id="paint16_linear_10_2307" x1="55.3389" y1="54.7999" x2="55.3389" y2="50.924" gradientUnits="userSpaceOnUse">
<stop stop-color="#449A98"/>
<stop offset="1" stop-color="#69BEB6"/>
</linearGradient>
<linearGradient id="paint17_linear_10_2307" x1="51.9741" y1="62.6768" x2="51.9741" y2="58.8008" gradientUnits="userSpaceOnUse">
<stop stop-color="#449A98"/>
<stop offset="1" stop-color="#69BEB6"/>
</linearGradient>
<linearGradient id="paint18_linear_10_2307" x1="28.3094" y1="73" x2="28.3094" y2="61.4501" gradientUnits="userSpaceOnUse">
<stop stop-color="#449A98"/>
<stop offset="1" stop-color="#69BEB6"/>
</linearGradient>
</defs>
</svg>
