<svg width="80" height="80" viewBox="0 0 80 80" fill="none" xmlns="http://www.w3.org/2000/svg">
<g clip-path="url(#clip0_10_2333)">
<path d="M70.6858 69.9388H70.3441V67.2054C70.3441 66.475 69.7546 65.881 69.0299 65.881H66.5368V64.1305C66.5368 63.3312 66.0188 62.6527 65.304 62.4147V57.3051C65.304 56.7588 64.8644 56.3159 64.3224 56.3159C63.7803 56.3159 63.3408 56.7588 63.3408 57.3051V62.3229H60.2574V36.8188H63.3408V52.7262C63.3408 53.2726 63.7803 53.7154 64.3224 53.7154C64.8644 53.7154 65.304 53.2725 65.304 52.7262V36.7267C66.0189 36.4887 66.5368 35.8101 66.5368 35.0109V33.2736H69.3214C70.0462 33.2736 70.6358 32.6794 70.6358 31.9492V28.5366C70.6358 27.8062 70.0462 27.212 69.3214 27.212H65.6529L43.4042 8.51284C42.5906 7.82899 41.4095 7.82912 40.5957 8.51284L29.3937 17.9276C28.9774 18.2775 28.9214 18.9012 29.2687 19.3208C29.6159 19.7403 30.2348 19.7968 30.6513 19.447L41.8532 10.0322C41.9383 9.96077 42.0617 9.96077 42.1468 10.0322L62.5559 27.1852H21.4441L27.1706 22.3723C27.587 22.0223 27.643 21.3986 27.2957 20.9791C26.9484 20.5594 26.3295 20.5032 25.9131 20.8529L18.3469 27.2119H14.6784C13.9537 27.2119 13.3642 27.8061 13.3642 28.5364V31.9491C13.3642 32.6794 13.9537 33.2735 14.6784 33.2735H17.463V35.0108C17.463 35.8101 17.9808 36.4886 18.6958 36.7266V62.4143C17.9808 62.6523 17.463 63.331 17.463 64.1301V65.8806H14.9701C14.2454 65.8806 13.6559 66.4746 13.6559 67.205V69.9384H13.3142C12.5895 69.9384 12 70.5325 12 71.2628V74.6755C12 75.4058 12.5895 76 13.3142 76H70.6858C71.4105 76 72 75.4058 72 74.6755V71.2628C72 70.5329 71.4104 69.9388 70.6858 69.9388ZM64.3222 64.3154C64.3767 64.3154 64.4295 64.3098 64.4816 64.3012H64.5734V65.8597H59.0244V64.3012H59.1162C59.1682 64.3097 59.2212 64.3154 59.2756 64.3154H64.3222ZM64.5734 34.84H64.3537C64.3432 34.8397 64.3328 34.8384 64.3222 34.8384H59.2756C59.2649 34.8384 59.2546 34.8397 59.2441 34.84H59.0244V33.2814H64.5734V34.84ZM15.3275 31.2951V29.1904H68.6725V31.2951H15.3275ZM34.9411 65.8808V48.5507C34.9411 44.653 38.0876 41.4823 41.9553 41.4823H42.0446C45.9124 41.4823 49.0588 44.6532 49.0588 48.5507V65.8808H34.9411ZM42.0446 39.5037H41.9553C37.005 39.5037 32.9777 43.5621 32.9777 48.5507V65.8808H26.9386V64.1304C26.9386 63.3311 26.4207 62.6525 25.7058 62.4145V36.7267C26.4207 36.4887 26.9386 35.8101 26.9386 35.0109V33.2736H57.0609V35.0109C57.0609 35.8102 57.5789 36.4887 58.2937 36.7267V62.4144C57.5787 62.6524 57.0609 63.3311 57.0609 64.1302V65.8807H51.022V48.5507C51.0221 43.5621 46.9948 39.5037 42.0446 39.5037ZM24.7242 64.3154C24.7786 64.3154 24.8314 64.3098 24.8835 64.3012H24.9754V65.8597H19.4263V64.3012H19.5182C19.5701 64.3097 19.6231 64.3154 19.6775 64.3154H24.7242ZM20.6591 62.3226V36.8185H23.7426V62.3226H20.6591ZM24.7558 34.84C24.7452 34.8397 24.7348 34.8384 24.7243 34.8384H19.6775C19.6668 34.8384 19.6566 34.8397 19.646 34.84H19.4263V33.2814H24.9754V34.84H24.7558ZM15.6191 67.8594H68.3807V69.9388H15.6191V67.8594ZM70.0367 74.022H13.9632V71.9173H70.0367V74.022Z" fill="url(#paint0_linear_10_2333)"/>
</g>
<defs>
<linearGradient id="paint0_linear_10_2333" x1="42" y1="8" x2="42" y2="76" gradientUnits="userSpaceOnUse">
<stop stop-color="#449A98"/>
<stop offset="1" stop-color="#69BEB6"/>
</linearGradient>
<clipPath id="clip0_10_2333">
<rect width="80" height="80" fill="white"/>
</clipPath>
</defs>
</svg>
